<?xml version="1.0" encoding="utf-8"?>
<!-- Generator: Adobe Illustrator 26.0.2, SVG Export Plug-In . SVG Version: 6.00 Build 0)  -->
<svg version="1.1" id="Layer_1" xmlns="http://www.w3.org/2000/svg" xmlns:xlink="http://www.w3.org/1999/xlink" x="0px" y="0px"
	 viewBox="0 0 345.71 293.8" style="enable-background:new 0 0 345.71 293.8;" xml:space="preserve">
<style type="text/css">
	.st0{fill:url(#SVGID_1_);}
	.st1{fill:url(#SVGID_00000032616461772011589630000008414642742624738228_);}
	.st2{fill:url(#SVGID_00000037673152829141206770000017223537955174726053_);}
	.st3{fill:url(#SVGID_00000064320170955199875720000007115599741086792376_);}
</style>
<linearGradient id="SVGID_1_" gradientUnits="userSpaceOnUse" x1="127.3179" y1="174.4266" x2="219.277" y2="174.4266">
	<stop  offset="0" style="stop-color:#328EAA"/>
	<stop  offset="1" style="stop-color:#2B768D"/>
</linearGradient>
<path class="st0" d="M127.8,215.63l7.06,5.59l11.32,4.7h44.87l25.34-56.07c0,0,13.41-28.27-17.47-43.65c0,0-27.74-14.74-42.79,18.42
	c-13.96,30.75-26.95,65.07-28.77,69.9c-0.04,0.1,0,0.09-0.03,0.16"/>
<linearGradient id="SVGID_00000029044878593437205380000009749551753738332050_" gradientUnits="userSpaceOnUse" x1="159.6232" y1="64.9006" x2="247.6646" y2="64.9006">
	<stop  offset="0" style="stop-color:#A21C43"/>
	<stop  offset="1" style="stop-color:#DA1F56"/>
</linearGradient>
<path style="fill:url(#SVGID_00000029044878593437205380000009749551753738332050_);" d="M184.61,103.64c0,0,12.17,28.83,44.2,16.01
	c0,0,29.47-10.89,14.73-44.2S209.43,6.87,209.43,6.87l-49.81,40.54L184.61,103.64z"/>
<linearGradient id="SVGID_00000126289926806741477100000002881256837801228733_" gradientUnits="userSpaceOnUse" x1="57.4993" y1="257.351" x2="153.4659" y2="41.8065">
	<stop  offset="0" style="stop-color:#A21C43"/>
	<stop  offset="1" style="stop-color:#DA1F56"/>
</linearGradient>
<path style="fill:url(#SVGID_00000126289926806741477100000002881256837801228733_);" d="M3.96,286.84h51.89
	c0,0,19.22,2.56,29.47-19.22S206.15,5.5,209.43,6.87l-63.26,0.05c0,0-13.45,0.64-24.98,22.42L3.96,286.84z"/>
<linearGradient id="SVGID_00000094585062420417429520000012920598998591847570_" gradientUnits="userSpaceOnUse" x1="135.9932" y1="279.7287" x2="337.695" y2="219.2857">
	<stop  offset="0.2327" style="stop-color:#369DBD"/>
	<stop  offset="0.3908" style="stop-color:#42BFE6"/>
	<stop  offset="0.8312" style="stop-color:#36A2C2"/>
</linearGradient>
<path style="fill:url(#SVGID_00000094585062420417429520000012920598998591847570_);" d="M127.33,214.64l26.16,57.93
	c0,0,6.11,11.98,30.71,13.52l153.68,0.84l-21.36-47.29c0,0-5.57-18.57-29.64-18.95c-23.59-0.37-154.22,2.97-159.56-6.08"/>
</svg>
