<?xml version="1.0" encoding="utf-8"?>
<!-- Generator: Adobe Illustrator 26.0.2, SVG Export Plug-In . SVG Version: 6.00 Build 0)  -->
<svg version="1.1" id="Layer_1" xmlns="http://www.w3.org/2000/svg" xmlns:xlink="http://www.w3.org/1999/xlink" x="0px" y="0px"
	 viewBox="0 0 270 105" style="enable-background:new 0 0 270 105;" xml:space="preserve">
<style type="text/css">
	.st0{fill:url(#SVGID_1_);}
	.st1{fill:url(#SVGID_00000109732015651049524580000012574235798637941652_);}
	.st2{fill:url(#SVGID_00000157299903834521316730000005942220657637454015_);}
	.st3{fill:url(#SVGID_00000062163334827196281800000008080792635026436775_);}
	.st4{fill:#063C4D;}
	.st5{fill:#787878;}
	.st6{fill:#DD1F55;}
	.st7{fill:#46C2EB;}
	.st8{fill:url(#SVGID_00000089557391524668904700000007473160664031847329_);}
	.st9{fill:url(#SVGID_00000151525152272643442980000003007220287163563655_);}
	.st10{fill:url(#SVGID_00000084492439151709521840000005535023259610682808_);}
	.st11{fill:url(#SVGID_00000150064412647445736310000008600192359701835690_);}
</style>
<g>
	<linearGradient id="SVGID_1_" gradientUnits="userSpaceOnUse" x1="-1043.0936" y1="59.6018" x2="-951.1346" y2="59.6018">
		<stop  offset="0" style="stop-color:#328EAA"/>
		<stop  offset="1" style="stop-color:#2B768D"/>
	</linearGradient>
	<path class="st0" d="M-1042.62,100.8l7.06,5.59l11.32,4.7h44.87l25.34-56.07c0,0,13.41-28.27-17.47-43.65
		c0,0-27.74-14.74-42.79,18.42c-13.96,30.75-26.95,65.07-28.77,69.9c-0.04,0.1,0,0.09-0.03,0.16"/>
	
		<linearGradient id="SVGID_00000038397928161148343380000015321729671056486021_" gradientUnits="userSpaceOnUse" x1="-1010.7884" y1="-49.9243" x2="-922.7469" y2="-49.9243">
		<stop  offset="0" style="stop-color:#A21C43"/>
		<stop  offset="1" style="stop-color:#DA1F56"/>
	</linearGradient>
	<path style="fill:url(#SVGID_00000038397928161148343380000015321729671056486021_);" d="M-985.81-11.19
		c0,0,12.17,28.83,44.2,16.01c0,0,29.47-10.89,14.73-44.2c-14.73-33.31-34.11-68.59-34.11-68.59l-49.81,40.54L-985.81-11.19z"/>
	
		<linearGradient id="SVGID_00000067211338258211302290000004313266033520010934_" gradientUnits="userSpaceOnUse" x1="-1112.9122" y1="142.5262" x2="-1016.9457" y2="-73.0183">
		<stop  offset="0" style="stop-color:#A21C43"/>
		<stop  offset="1" style="stop-color:#DA1F56"/>
	</linearGradient>
	<path style="fill:url(#SVGID_00000067211338258211302290000004313266033520010934_);" d="M-1166.45,172.02h51.89
		c0,0,19.22,2.56,29.47-19.22c10.25-21.78,120.83-262.12,124.11-260.76l-63.26,0.05c0,0-13.45,0.64-24.98,22.42L-1166.45,172.02z"/>
	
		<linearGradient id="SVGID_00000021841442949683705870000018237605457906750859_" gradientUnits="userSpaceOnUse" x1="-1034.4185" y1="164.9038" x2="-832.7165" y2="104.4608">
		<stop  offset="0.2327" style="stop-color:#369DBD"/>
		<stop  offset="0.3908" style="stop-color:#42BFE6"/>
		<stop  offset="0.8312" style="stop-color:#36A2C2"/>
	</linearGradient>
	<path style="fill:url(#SVGID_00000021841442949683705870000018237605457906750859_);" d="M-1043.09,99.81l26.16,57.93
		c0,0,6.11,11.98,30.71,13.52l153.68,0.84l-21.36-47.29c0,0-5.57-18.57-29.64-18.95c-23.59-0.37-154.22,2.97-159.56-6.08"/>
	<g>
		<g>
			<path class="st4" d="M-861.83,92.71v-58.3h25.43c7.84,0,13.8,1.48,17.88,4.44c4.07,2.96,6.11,7.26,6.11,12.91
				c0,3.9-0.91,7.08-2.72,9.53c-1.82,2.45-4.55,4.19-8.18,5.19l17.09,26.22h-22.22l-13.21-27.47v-1.05c3.64-0.52,6.3-1.7,7.99-3.52
				c1.69-1.81,2.53-4.41,2.53-7.79c0-3.42-0.9-6-2.69-7.75c-1.8-1.75-4.45-2.63-7.95-2.63c-0.53,0-0.94,0.02-1.25,0.04
				c-0.31,0.02-0.59,0.06-0.85,0.1v50.08H-861.83z"/>
			<path class="st4" d="M-744.86,78.18c-2.45,5.43-5.76,9.57-9.92,12.42s-9.01,4.27-14.52,4.27c-8.5,0-15.44-2.87-20.8-8.61
				c-5.36-5.74-8.05-13.19-8.05-22.35c0-9.2,2.77-16.72,8.32-22.57s12.56-8.78,21.06-8.78c5.87,0,10.78,1.26,14.72,3.78
				c3.94,2.52,6.79,6.24,8.54,11.14l-8.21,4.73c-0.92-3.64-2.31-6.36-4.17-8.18c-1.87-1.81-4.15-2.73-6.87-2.73
				c-4.07,0-7.19,1.9-9.36,5.69s-3.25,9.3-3.25,16.53c0,7.75,0.92,13.4,2.76,16.93c1.84,3.53,4.78,5.29,8.81,5.29
				c2.98,0,5.7-1.07,8.15-3.22c2.45-2.15,4.23-5.04,5.32-8.67L-744.86,78.18z"/>
			<path class="st4" d="M-734.99,92.71V-1.41H-716v55.86h14V34.41h18.99v58.3H-702V63.92h-14v28.79H-734.99z"/>
			<path class="st4" d="M-642.38,94.88c-8.54,0-15.66-3.11-21.36-9.33c-5.7-6.22-8.54-14.02-8.54-23.4c0-8.94,2.72-16.1,8.15-21.49
				c5.44-5.39,12.69-8.09,21.75-8.09c8.5,0,15.59,3.12,21.26,9.37c5.68,6.24,8.51,14.05,8.51,23.43c0,9.03-2.68,16.2-8.05,21.52
				C-626.03,92.21-633.27,94.88-642.38,94.88z M-633.11,64.18c0-7.93-0.8-13.89-2.4-17.88c-1.6-3.99-4.02-5.98-7.26-5.98
				c-3.02,0-5.28,1.9-6.77,5.69c-1.49,3.79-2.23,9.52-2.23,17.19c0,7.98,0.81,13.97,2.43,17.98c1.62,4.01,4.03,6.01,7.23,6.01
				c3.02,0,5.28-1.91,6.77-5.72S-633.11,71.9-633.11,64.18z"/>
			<path class="st4" d="M-603.7,92.71v-58.3h25.43c7.84,0,13.8,1.48,17.88,4.44c4.07,2.96,6.11,7.26,6.11,12.91
				c0,3.9-0.91,7.08-2.73,9.53s-4.54,4.19-8.18,5.19l17.09,26.22h-22.22l-13.21-27.47v-1.05c3.64-0.52,6.3-1.7,7.98-3.52
				c1.69-1.81,2.53-4.41,2.53-7.79c0-3.42-0.9-6-2.69-7.75c-1.8-1.75-4.45-2.63-7.95-2.63c-0.53,0-0.94,0.02-1.25,0.04
				s-0.59,0.06-0.85,0.1v50.08H-603.7z"/>
			<path class="st4" d="M-541.15,92.71l15.18-47.52c1.49-4.73,3.19-8.02,5.09-9.86c1.91-1.84,4.48-2.76,7.72-2.76
				c3.02,0,5.39,0.81,7.1,2.43c1.71,1.62,3.29,4.71,4.73,9.27l15.71,48.44h-19.91l-3.22-10.65h-19.39l-3.09,10.65H-541.15z
				 M-525.71,73.97h14.52l-6.97-25.3L-525.71,73.97z"/>
			<path class="st4" d="M-456.19,74.7c0,3.59,0.6,6.04,1.81,7.33c1.2,1.29,3.51,1.94,6.93,1.94h4.73v8.74h-16.16
				c-6,0-10.22-1.29-12.65-3.88c-2.43-2.58-3.64-7.21-3.64-13.87V-1.41h18.99V74.7z"/>
		</g>
	</g>
	<path class="st4" d="M-912.14,0.34l-40.09,92.24h15.11l8.33-23.7l26.9,0.64l9.61,23.06h21.78L-912.14,0.34z M-925.83,61.08
		l9.84-23.59l10.11,23.58L-925.83,61.08z"/>
	<g>
		<g>
			<path class="st5" d="M-812.32,126.25h9.89c7.33,0,12.34,4.52,12.34,11.31c0,6.79-5.01,11.31-12.34,11.31h-9.89V126.25z
				 M-802.63,145.31c5.04,0,8.3-3.07,8.3-7.75c0-4.68-3.26-7.75-8.3-7.75h-5.49v15.51H-802.63z"/>
			<path class="st5" d="M-761.46,148.87l-4.62-6.62c-0.29,0.03-0.58,0.03-0.87,0.03h-5.11v6.59h-4.2v-22.62h9.31
				c5.94,0,9.63,3.04,9.63,8.05c0,3.43-1.75,5.95-4.81,7.14l5.2,7.43H-761.46z M-767.15,129.81h-4.91v9.01h4.91
				c3.68,0,5.59-1.68,5.59-4.52C-761.55,131.45-763.46,129.81-767.15,129.81z"/>
			<path class="st5" d="M-743.26,126.25h4.2v22.62h-4.2V126.25z"/>
			<path class="st5" d="M-703.07,126.25l-9.85,22.62h-4.14l-9.89-22.62h4.56l7.53,17.45l7.59-17.45H-703.07z"/>
			<path class="st5" d="M-674.34,145.35v3.52h-16.96v-22.62h16.51v3.52h-12.31v5.88h10.92v3.46h-10.92v6.24H-674.34z"/>
			<path class="st5" d="M-640.19,126.25v22.62h-3.46l-12.47-15.32v15.32h-4.17v-22.62h3.46l12.47,15.32v-15.32H-640.19z"/>
			<path class="st5" d="M-586.35,142.73c0,3.88-3.04,6.14-8.85,6.14h-11.24v-22.62h10.6c5.43,0,8.34,2.29,8.34,5.88
				c0,2.33-1.16,4.04-2.91,4.98C-588,137.88-586.35,139.79-586.35,142.73z M-602.25,129.55v6.24h5.94c2.91,0,4.56-1.03,4.56-3.1
				c0-2.1-1.65-3.13-4.56-3.13H-602.25z M-590.59,142.31c0-2.26-1.71-3.26-4.88-3.26h-6.78v6.53h6.78
				C-592.3,145.57-590.59,144.57-590.59,142.31z"/>
			<path class="st5" d="M-563.21,140.89v7.98h-4.2v-7.92l-8.89-14.7h4.49l6.62,11.02l6.69-11.02h4.14L-563.21,140.89z"/>
			<path class="st5" d="M-514.2,140.89v7.98h-4.2v-7.92l-8.89-14.7h4.49l6.62,11.02l6.69-11.02h4.14L-514.2,140.89z"/>
			<path class="st5" d="M-495.81,137.56c0-6.69,5.17-11.63,12.18-11.63s12.18,4.91,12.18,11.63c0,6.72-5.17,11.63-12.18,11.63
				S-495.81,144.25-495.81,137.56z M-475.68,137.56c0-4.62-3.39-7.95-7.95-7.95s-7.95,3.33-7.95,7.95c0,4.62,3.39,7.95,7.95,7.95
				S-475.68,142.18-475.68,137.56z"/>
			<path class="st5" d="M-457.81,139.01v-12.76h4.2v12.6c0,4.65,2.1,6.66,5.75,6.66c3.65,0,5.72-2,5.72-6.66v-12.6h4.14v12.76
				c0,6.59-3.72,10.18-9.89,10.18C-454.09,149.19-457.81,145.6-457.81,139.01z"/>
		</g>
	</g>
	<circle class="st6" cx="-623.54" cy="139.41" r="4.48"/>
	<circle class="st7" cx="-540.9" cy="139.41" r="4.48"/>
</g>
<g>
	
		<linearGradient id="SVGID_00000140693908019432323150000018189857521338799550_" gradientUnits="userSpaceOnUse" x1="47.5201" y1="62.6986" x2="80.8368" y2="62.6986">
		<stop  offset="0" style="stop-color:#328EAA"/>
		<stop  offset="1" style="stop-color:#2B768D"/>
	</linearGradient>
	<path style="fill:url(#SVGID_00000140693908019432323150000018189857521338799550_);" d="M47.69,77.63l2.56,2.03l4.1,1.7h16.26
		l9.18-20.31c0,0,4.86-10.24-6.33-15.81c0,0-10.05-5.34-15.5,6.67c-5.06,11.14-9.76,23.57-10.42,25.33c-0.01,0.04,0,0.03-0.01,0.06"
		/>
	
		<linearGradient id="SVGID_00000009579314844757671650000006364754353821419151_" gradientUnits="userSpaceOnUse" x1="59.2243" y1="23.0174" x2="91.1216" y2="23.0174">
		<stop  offset="0" style="stop-color:#A21C43"/>
		<stop  offset="1" style="stop-color:#DA1F56"/>
	</linearGradient>
	<path style="fill:url(#SVGID_00000009579314844757671650000006364754353821419151_);" d="M68.28,37.05c0,0,4.41,10.44,16.01,5.8
		c0,0,10.68-3.95,5.34-16.01C84.29,14.77,77.27,1.99,77.27,1.99L59.22,16.68L68.28,37.05z"/>
	
		<linearGradient id="SVGID_00000174587751749055877900000004384724177562092690_" gradientUnits="userSpaceOnUse" x1="22.2248" y1="92.7421" x2="56.9935" y2="14.6505">
		<stop  offset="0" style="stop-color:#A21C43"/>
		<stop  offset="1" style="stop-color:#DA1F56"/>
	</linearGradient>
	<path style="fill:url(#SVGID_00000174587751749055877900000004384724177562092690_);" d="M2.83,103.43h18.8
		c0,0,6.96,0.93,10.68-6.96C36.02,88.57,76.08,1.5,77.27,1.99L54.35,2.01c0,0-4.87,0.23-9.05,8.12L2.83,103.43z"/>
	
		<linearGradient id="SVGID_00000165954026345408591860000006324473286080855735_" gradientUnits="userSpaceOnUse" x1="50.6631" y1="100.8495" x2="123.7396" y2="78.951">
		<stop  offset="0.2327" style="stop-color:#369DBD"/>
		<stop  offset="0.3908" style="stop-color:#42BFE6"/>
		<stop  offset="0.8312" style="stop-color:#36A2C2"/>
	</linearGradient>
	<path style="fill:url(#SVGID_00000165954026345408591860000006324473286080855735_);" d="M47.52,77.27L57,98.26
		c0,0,2.21,4.34,11.13,4.9l55.68,0.31l-7.74-17.13c0,0-2.02-6.73-10.74-6.86C96.78,79.33,49.46,80.54,47.52,77.27"/>
	<g>
		<g>
			<path class="st4" d="M113.19,74.69V53.57h9.21c2.84,0,5,0.54,6.48,1.61c1.48,1.07,2.21,2.63,2.21,4.68
				c0,1.41-0.33,2.56-0.99,3.45c-0.66,0.89-1.65,1.52-2.96,1.88l6.19,9.5h-8.05l-4.79-9.95v-0.38c1.32-0.19,2.28-0.61,2.89-1.27
				c0.61-0.66,0.92-1.6,0.92-2.82c0-1.24-0.33-2.17-0.98-2.81c-0.65-0.63-1.61-0.95-2.88-0.95c-0.19,0-0.34,0.01-0.45,0.01
				c-0.11,0.01-0.21,0.02-0.31,0.04v18.14H113.19z"/>
			<path class="st4" d="M155.57,69.43c-0.89,1.97-2.09,3.47-3.6,4.5c-1.51,1.03-3.26,1.55-5.26,1.55c-3.08,0-5.59-1.04-7.54-3.12
				c-1.94-2.08-2.92-4.78-2.92-8.1c0-3.33,1-6.06,3.01-8.18c2.01-2.12,4.55-3.18,7.63-3.18c2.13,0,3.91,0.46,5.33,1.37
				c1.43,0.91,2.46,2.26,3.1,4.04l-2.98,1.71c-0.33-1.32-0.84-2.31-1.51-2.96c-0.68-0.66-1.5-0.99-2.49-0.99
				c-1.48,0-2.61,0.69-3.39,2.06s-1.18,3.37-1.18,5.99c0,2.81,0.33,4.85,1,6.13c0.67,1.28,1.73,1.92,3.19,1.92
				c1.08,0,2.06-0.39,2.95-1.17c0.89-0.78,1.53-1.82,1.93-3.14L155.57,69.43z"/>
			<path class="st4" d="M159.14,74.69v-34.1h6.88v20.24h5.07v-7.26h6.88v21.12h-6.88V64.26h-5.07v10.43H159.14z"/>
			<path class="st4" d="M192.7,75.48c-3.1,0-5.67-1.13-7.74-3.38c-2.06-2.25-3.1-5.08-3.1-8.48c0-3.24,0.98-5.83,2.95-7.79
				c1.97-1.95,4.6-2.93,7.88-2.93c3.08,0,5.65,1.13,7.7,3.39c2.06,2.26,3.08,5.09,3.08,8.49c0,3.27-0.97,5.87-2.92,7.8
				C198.62,74.51,196,75.48,192.7,75.48z M196.06,64.36c0-2.87-0.29-5.03-0.87-6.48c-0.58-1.44-1.46-2.17-2.63-2.17
				c-1.09,0-1.91,0.69-2.45,2.06c-0.54,1.37-0.81,3.45-0.81,6.23c0,2.89,0.29,5.06,0.88,6.51c0.59,1.45,1.46,2.18,2.62,2.18
				c1.09,0,1.91-0.69,2.45-2.07C195.79,69.24,196.06,67.15,196.06,64.36z"/>
			<path class="st4" d="M206.71,74.69V53.57h9.21c2.84,0,5,0.54,6.48,1.61c1.48,1.07,2.21,2.63,2.21,4.68
				c0,1.41-0.33,2.56-0.99,3.45c-0.66,0.89-1.65,1.52-2.96,1.88l6.19,9.5h-8.05l-4.79-9.95v-0.38c1.32-0.19,2.28-0.61,2.89-1.27
				c0.61-0.66,0.92-1.6,0.92-2.82c0-1.24-0.33-2.17-0.98-2.81c-0.65-0.63-1.61-0.95-2.88-0.95c-0.19,0-0.34,0.01-0.45,0.01
				c-0.11,0.01-0.21,0.02-0.31,0.04v18.14H206.71z"/>
			<path class="st4" d="M229.37,74.69l5.5-17.22c0.54-1.71,1.15-2.91,1.84-3.57c0.69-0.67,1.62-1,2.8-1c1.09,0,1.95,0.29,2.57,0.88
				c0.62,0.59,1.19,1.71,1.71,3.36l5.69,17.55h-7.21l-1.17-3.86h-7.02l-1.12,3.86H229.37z M234.97,67.91h5.26l-2.52-9.17
				L234.97,67.91z"/>
			<path class="st4" d="M260.16,68.17c0,1.3,0.22,2.19,0.65,2.65c0.44,0.47,1.27,0.7,2.51,0.7h1.71v3.17h-5.86
				c-2.18,0-3.7-0.47-4.58-1.4c-0.88-0.94-1.32-2.61-1.32-5.02V40.59h6.88V68.17z"/>
		</g>
	</g>
	<path class="st4" d="M94.96,41.23L80.44,74.65h5.47l3.02-8.59l9.75,0.23l3.48,8.35h7.89L94.96,41.23z M90.01,63.24l3.57-8.55
		l3.66,8.54L90.01,63.24z"/>
	<g>
		<g>
			<path class="st5" d="M131.13,86.85h3.58c2.66,0,4.47,1.64,4.47,4.1s-1.81,4.1-4.47,4.1h-3.58V86.85z M134.64,93.75
				c1.83,0,3.01-1.11,3.01-2.81c0-1.7-1.18-2.81-3.01-2.81h-1.99v5.62H134.64z"/>
			<path class="st5" d="M149.56,95.04l-1.67-2.4c-0.11,0.01-0.21,0.01-0.32,0.01h-1.85v2.39h-1.52v-8.19h3.37
				c2.15,0,3.49,1.1,3.49,2.91c0,1.24-0.63,2.15-1.74,2.59l1.88,2.69H149.56z M147.5,88.13h-1.78v3.27h1.78
				c1.33,0,2.03-0.61,2.03-1.64C149.52,88.73,148.83,88.13,147.5,88.13z"/>
			<path class="st5" d="M156.15,86.85h1.52v8.19h-1.52V86.85z"/>
			<path class="st5" d="M170.71,86.85l-3.57,8.19h-1.5l-3.58-8.19h1.65l2.73,6.32l2.75-6.32H170.71z"/>
			<path class="st5" d="M181.12,93.76v1.28h-6.15v-8.19h5.98v1.28h-4.46v2.13h3.96v1.25h-3.96v2.26H181.12z"/>
			<path class="st5" d="M193.49,86.85v8.19h-1.25l-4.52-5.55v5.55h-1.51v-8.19h1.25l4.52,5.55v-5.55H193.49z"/>
			<path class="st5" d="M213,92.82c0,1.4-1.1,2.22-3.21,2.22h-4.07v-8.19h3.84c1.97,0,3.02,0.83,3.02,2.13
				c0,0.84-0.42,1.46-1.05,1.8C212.4,91.06,213,91.75,213,92.82z M207.24,88.04v2.26h2.15c1.05,0,1.65-0.37,1.65-1.12
				c0-0.76-0.6-1.14-1.65-1.14H207.24z M211.46,92.66c0-0.82-0.62-1.18-1.77-1.18h-2.46v2.36h2.46
				C210.84,93.85,211.46,93.48,211.46,92.66z"/>
			<path class="st5" d="M221.38,92.15v2.89h-1.52v-2.87l-3.22-5.33h1.63l2.4,3.99l2.42-3.99h1.5L221.38,92.15z"/>
			<path class="st5" d="M239.14,92.15v2.89h-1.52v-2.87l-3.22-5.33h1.63l2.4,3.99l2.42-3.99h1.5L239.14,92.15z"/>
			<path class="st5" d="M245.8,90.94c0-2.42,1.87-4.21,4.41-4.21c2.54,0,4.41,1.78,4.41,4.21s-1.87,4.21-4.41,4.21
				C247.67,95.16,245.8,93.37,245.8,90.94z M253.09,90.94c0-1.67-1.23-2.88-2.88-2.88c-1.65,0-2.88,1.21-2.88,2.88
				c0,1.67,1.23,2.88,2.88,2.88C251.87,93.82,253.09,92.62,253.09,90.94z"/>
			<path class="st5" d="M259.57,91.47v-4.62h1.52v4.57c0,1.69,0.76,2.41,2.08,2.41c1.32,0,2.07-0.73,2.07-2.41v-4.57h1.5v4.62
				c0,2.39-1.35,3.69-3.58,3.69C260.92,95.16,259.57,93.86,259.57,91.47z"/>
		</g>
	</g>
	<circle class="st6" cx="199.52" cy="91.61" r="1.62"/>
	<circle class="st7" cx="229.46" cy="91.61" r="1.62"/>
</g>
</svg>
